<svg width="28" height="28" viewBox="0 0 28 28" fill="none" xmlns="http://www.w3.org/2000/svg">
<path d="M17.436 4.375C18.9193 4.77396 20.2718 5.55567 21.358 6.64184C22.4442 7.72801 23.2259 9.08051 23.6249 10.5639" stroke="#1A1A1A" stroke-width="1.5" stroke-linecap="round" stroke-linejoin="round"/>
<path d="M16.5306 7.75684C17.4205 7.99622 18.2318 8.46518 18.8833 9.11675C19.5349 9.76832 20.0039 10.5796 20.2433 11.4695" stroke="#1A1A1A" stroke-width="1.5" stroke-linecap="round" stroke-linejoin="round"/>
<path d="M10.115 13.6517C11.0224 15.5074 12.5263 17.0048 14.3859 17.9042C14.522 17.9687 14.6727 17.9965 14.8229 17.985C14.9731 17.9735 15.1178 17.923 15.2425 17.8385L17.9812 16.0133C18.1022 15.9325 18.2414 15.8832 18.3862 15.8697C18.5311 15.8563 18.677 15.8792 18.8107 15.9363L23.9339 18.1325C24.1079 18.2065 24.2532 18.3349 24.3479 18.4986C24.4426 18.6622 24.4815 18.8522 24.4589 19.0399C24.2967 20.3069 23.6784 21.4713 22.7196 22.3153C21.7608 23.1592 20.5273 23.6248 19.25 23.6249C15.3049 23.6249 11.5214 22.0577 8.73179 19.2681C5.94218 16.4785 4.375 12.695 4.375 8.74992C4.37512 7.47271 4.84074 6.23933 5.68471 5.28069C6.52867 4.32206 7.6931 3.70389 8.96 3.54192C9.14771 3.51928 9.33769 3.55824 9.50134 3.65293C9.66499 3.74761 9.79345 3.8929 9.86738 4.06692L12.0654 9.19442C12.1219 9.32691 12.1449 9.4713 12.1322 9.61478C12.1195 9.75826 12.0716 9.89639 11.9928 10.0169L10.1728 12.7977C10.0901 12.9229 10.0414 13.0674 10.0313 13.2171C10.0212 13.3667 10.05 13.5165 10.115 13.6517V13.6517Z" stroke="#1A1A1A" stroke-width="1.5" stroke-linecap="round" stroke-linejoin="round"/>
</svg>
