<svg width="32" height="33" viewBox="0 0 32 33" fill="none" xmlns="http://www.w3.org/2000/svg">
<path d="M31.2749 4.84259C27.4022 4.84259 21.9311 5.16662 19.1352 7.96105C17.9247 9.17155 17.3202 11.1449 17.4771 13.3785C17.4975 13.6735 17.6937 13.9248 17.9756 14.0179C18.256 14.1094 18.5641 14.0237 18.7559 13.7985C20.3108 11.9689 22.2435 10.5027 24.5046 9.44041C24.6964 9.34886 24.9231 9.34157 25.1295 9.41425C25.3111 9.47965 25.4535 9.60314 25.5276 9.76158C25.6816 10.0871 25.6322 10.5158 25.1207 10.757C25.0917 10.7715 25.0655 10.7904 25.0365 10.8035C25.0263 10.8079 25.0147 10.8064 25.006 10.8108C19.4346 13.4294 16.6954 17.9981 15.4514 22.6962C14.5446 16.8138 12.6294 13.3509 10.8202 11.2249C9.51095 9.52767 8.22341 8.62812 7.47943 8.11956C7.34136 8.02508 6.92435 7.74028 6.7514 7.56733C6.46803 7.28397 6.46803 6.82329 6.7514 6.53993C7.03477 6.25799 7.49687 6.25799 7.81218 6.57187C7.88922 6.64019 8.01272 6.72738 8.16966 6.83201L8.29902 6.9192C9.35108 7.63995 11.31 8.97831 13.0479 11.8599C13.2034 12.1171 13.5042 12.2552 13.7963 12.2C14.0928 12.1476 14.3252 11.9195 14.3834 11.6245C14.7627 9.68747 14.5927 6.81308 12.8649 5.08529C10.069 2.29229 4.59789 1.96826 0.726671 1.96826C0.32553 1.96819 0 2.29372 0 2.6948C0 6.56745 0.324032 12.0386 3.11846 14.8345C4.28387 15.9999 6.08147 16.5231 7.86736 16.5231C9.32486 16.5231 10.7533 16.1583 11.8476 15.5262C13.3399 18.6185 14.5316 23.2381 14.5316 30.3048C14.5316 30.7059 14.8571 31.0314 15.2582 31.0314C15.6592 31.0314 15.9848 30.7059 15.9848 30.3048C15.9848 26.3624 16.6605 21.6309 19.173 17.7364C20.18 18.7202 21.9137 19.3437 23.8347 19.4018C23.9306 19.4047 24.0251 19.4061 24.1195 19.4061C26.0711 19.4061 27.796 18.7944 28.8815 17.7073C31.6773 14.9115 31.9999 9.44034 31.9999 5.56763C32.0015 5.16662 31.6774 4.84259 31.2749 4.84259Z" fill="#00B307"/>
</svg>
